# xmcd
#
# Track frame offsets:
#   150
#   12146
#   26111
#   41302
#   57888
#   73300
#   93847
#   110055
#   128225
#   143473
#   157391
#   169561
#   180510
#   196248
#   211014
#   227091
#   241655
#   254142
#
# Disc length: 3602 seconds
#
# Revision: 0
# Processed by: cddbd v1.5.2PL0 Copyright (c) Steve Scherf et al.
# Submitted via: uFREEDB ActiveX Control 1.5
#
DISCID=f30e1012
DTITLE=Diversos - O Melhor da Boemia
DYEAR=1900
DGENRE=pop
TTITLE0=Vestígios de amor - Grupo Hello
TTITLE1=Noite Maravilhosa - Cezar e Paulinho
TTITLE2=Duas Camisas - Miionário e José Rico
TTITLE3=Morrendo de Saudade - Grupo Hello
TTITLE4=Mulher Maravilhosa - Dalvan
TTITLE5=Som de cristal - Joaquim e Manuel
TTITLE6=Roupa de lua-de-mel - Gian e Giovani
TTITLE7=Paixão proibida - Teodoro e Sampaio
TTITLE8=Toalha de banho - Bob e Robson
TTITLE9=Camisola preta - Trio Parada Dura
TTITLE10=Amante amada - Chitãozinho e Xororó
TTITLE11=Eu volto amanhã - João Mineiro e Marciano
TTITLE12=X Salada - Bob e Robson
TTITLE13=Circo da vida - Rony e Roby
TTITLE14=Tempo ao tempo - Chrystian e Ralf
TTITLE15=Barco de papel - Trio Parada Dura
TTITLE16=Flor do baile - Tião Carreiro e Pardinho
TTITLE17=Viva a vida - Milionário e José Rico
EXTD=
EXTT0=
EXTT1=
EXTT2=
EXTT3=
EXTT4=
EXTT5=
EXTT6=
EXTT7=
EXTT8=
EXTT9=
EXTT10=
EXTT11=
EXTT12=
EXTT13=
EXTT14=
EXTT15=
EXTT16=
EXTT17=
PLAYORDER=
